# xmcd CD database file
#
# Track frame offsets:
#	150
#	27279
#	52690
#	76397
#	104217
#	131948
#	156555
#	180917
#	205748
#	231695
#	258411
#	284921
#
# Disc length: 4123 seconds
#
# Revision: 0
# Processed by: cddbd v1.5.1PL0 Copyright (c) Steve Scherf et al.
# Submitted via: CDex 1.51
#
DISCID=b510190c
DTITLE=Harry Edison and Charlie Shavers - Complete At Midnight and At Riverside Sessions
DYEAR=1900
DGENRE=Jazz
TTITLE0=Moten Swing
TTITLE1=Making The Scene
TTITLE2=Sweet Georgia Brown
TTITLE3=Blue Lou
TTITLE4=Stompin At The Savoy
TTITLE5=Session At Midnight
TTITLE6=Out Of Nowhere
TTITLE7=I Want To Be Happy
TTITLE8=Broadway
TTITLE9=Session At Riverside
TTITLE10=Undecided
TTITLE11=Escape Hatch
EXTD=
EXTT0=
EXTT1=
EXTT2=
EXTT3=
EXTT4=
EXTT5=
EXTT6=
EXTT7=
EXTT8=
EXTT9=
EXTT10=
EXTT11=
PLAYORDER=
